<?xml version="1.0" encoding="utf-8"?>
<!-- Generator: Adobe Illustrator 19.0.0, SVG Export Plug-In . SVG Version: 6.00 Build 0)  -->
<svg version="1.1" id="Layer_1" xmlns="http://www.w3.org/2000/svg" xmlns:xlink="http://www.w3.org/1999/xlink" x="0px" y="0px"
	 viewBox="0 0 1395.1 1408.5" style="enable-background:new 0 0 1395.1 1408.5;" xml:space="preserve">
<style type="text/css">
	.st0{fill:#FFCE00;}
	.st1{fill:#C1272D;}
	.st2{fill:#9B1E27;}
	.st3{fill:#FCB19D;}
	.st4{fill:#FFCFC0;}
	.st5{fill:#9B5E0D;}
	.st6{fill:#040C54;}
	.st7{fill:#EA7898;}
	.st8{fill:none;}
</style>
<path class="st0" d="M1365,686.6c0,370.7-300.5,671.3-671.3,671.3c-370.7,0-671.3-300.5-671.3-671.3S323,15.3,693.7,15.3
	C1064.5,15.3,1365,315.9,1365,686.6"/>
<path class="st1" d="M1037.7,1408.5c0-0.2,0-0.5,0-0.7c0-190-154-344-344-344c-190,0-344,154-344,344c0,0.2,0,0.5,0,0.7H1037.7z"/>
<path class="st2" d="M776.2,1127.4c0,41.3-33.4,74.7-74.7,74.7c-41.3,0-74.7-33.4-74.7-74.7c0-41.3,33.4-74.7,74.7-74.7
	C742.8,1052.7,776.2,1086.1,776.2,1127.4"/>
<path class="st3" d="M761.6,1126c0,33.3-27,60.3-60.3,60.3c-33.3,0-60.3-27-60.3-60.3V968.4c0-33.3,27-60.3,60.3-60.3
	c33.3,0,60.3,27,60.3,60.3V1126z"/>
<path class="st4" d="M1002.3,628.7c0,42.7-34.6,77.3-77.3,77.3c-42.7,0-77.3-34.6-77.3-77.3c0-42.7,34.6-77.3,77.3-77.3
	C967.6,551.4,1002.3,586,1002.3,628.7"/>
<path class="st3" d="M970.2,628.7c0,25-20.2,45.2-45.2,45.2c-25,0-45.2-20.2-45.2-45.2c0-25,20.2-45.2,45.2-45.2
	C949.9,583.4,970.2,603.7,970.2,628.7"/>
<path class="st4" d="M539.7,631.2c0,42.7-34.6,77.3-77.3,77.3c-42.7,0-77.3-34.6-77.3-77.3c0-42.7,34.6-77.3,77.3-77.3
	C505.1,554,539.7,588.6,539.7,631.2"/>
<path class="st3" d="M507.6,631.2c0,25-20.2,45.2-45.2,45.2c-25,0-45.2-20.2-45.2-45.2c0-25,20.2-45.2,45.2-45.2
	C487.4,586,507.6,606.3,507.6,631.2"/>
<path class="st4" d="M925,439.3v420.8c0,127.7-103.5,231.2-231.2,231.2c-63.8,0-121.6-25.9-163.5-67.7
	c-41.9-41.8-67.7-99.7-67.7-163.5V439.3c0-127.7,103.5-231.2,231.2-231.2c63.8,0,121.7,25.9,163.5,67.7
	C899.1,317.7,925,375.5,925,439.3"/>
<path class="st5" d="M616.1,613.6c0,13.9-11.3,25.2-25.2,25.2c-13.9,0-25.2-11.3-25.2-25.2c0-13.9,11.3-25.2,25.2-25.2
	C604.8,588.4,616.1,599.7,616.1,613.6"/>
<path class="st5" d="M827.2,617.5c0,13.9-11.3,25.2-25.2,25.2c-13.9,0-25.2-11.3-25.2-25.2c0-13.9,11.3-25.2,25.2-25.2
	C815.9,592.3,827.2,603.6,827.2,617.5"/>
<path class="st6" d="M844.8,899.7c-8.3,35.7-28.9,65.3-56.3,85.4c-33.4,24.4-76.8,34.7-120.2,24.6c-38.3-8.9-69.7-32.1-89.7-62.6
	c-21.3-32.4-29.8-73.2-20.3-114c2.5-10.8,6.2-21,10.8-30.6l279.6,65C848.5,878.1,847.3,888.9,844.8,899.7"/>
<path class="st3" d="M715,734.4c0,11.8-9.5,21.3-21.3,21.3c-11.8,0-21.3-9.5-21.3-21.3v-95.6c0-11.8,9.5-21.3,21.3-21.3
	c11.8,0,21.3,9.5,21.3,21.3V734.4z"/>
<path class="st5" d="M543.8,492.3c104.6,14.5,201.2-58.5,215.8-163.2l-378.9-52.6C366.1,381.2,439.1,477.8,543.8,492.3"/>
<path class="st5" d="M815.3,436.6c19-73.3-25.1-148.2-98.4-167.1L648.2,535C721.5,554,796.4,509.9,815.3,436.6"/>
<path class="st5" d="M812,477.7c62.9,42.2,148.1,25.4,190.3-37.5L774.4,287.4C732.2,350.3,749.1,435.5,812,477.7"/>
<path class="st5" d="M616,541.4c0.5,3.2-1.6,6.2-4.7,6.7l-47.1,8.1c-3.2,0.5-6.2-1.6-6.7-4.7c-0.5-3.2,1.6-6.2,4.7-6.7l47.1-8.1
	C612.5,536.2,615.5,538.3,616,541.4"/>
<path class="st5" d="M829.9,542.6c-1.1,3-4.4,4.6-7.4,3.5l-44.9-16.3c-3-1.1-4.6-4.4-3.5-7.4c1.1-3,4.4-4.6,7.4-3.5l44.9,16.3
	C829.5,536.3,831,539.6,829.9,542.6"/>
<path class="st7" d="M788.5,985.1c-33.4,24.4-76.8,34.7-120.2,24.6c-38.3-8.9-69.7-32.1-89.7-62.6c22-45.6,73.3-71.5,124.7-59.5
	C750.9,898.6,784.1,938.9,788.5,985.1"/>
<path class="st5" d="M938.5,442.5c0-1,0-2.1,0-3.1c0-135-109.8-244.8-244.8-244.8c-135,0-244.8,109.8-244.8,244.8c0,1.1,0,2.1,0,3.1
	H938.5z"/>
<path class="st5" d="M925,454.8v155.4c-8.9,0-17-3.6-22.8-9.5c-5.8-5.9-9.5-13.9-9.5-22.8v-90.8C892.7,469.3,907.1,454.8,925,454.8"
	/>
<path class="st5" d="M462.5,433.1v155.4c8.9,0,17-3.6,22.8-9.5c5.8-5.8,9.5-13.9,9.5-22.8v-90.8
	C494.8,447.5,480.3,433.1,462.5,433.1"/>
<path class="st2" d="M757.3,1291.4v45.4c0,31.1,25.2,56.3,56.3,56.3c31.1,0,56.3-25.2,56.3-56.3v-45.4H757.3z"/>
<rect x="-266.3" y="-248.1" class="st8" width="1920" height="1920"/>
</svg>
